<?xml version="1.0" encoding="UTF-8"?>
<svg width="281px" height="69px" viewBox="0 0 281 69" version="1.1" xmlns="http://www.w3.org/2000/svg" xmlns:xlink="http://www.w3.org/1999/xlink">
    <!-- Generator: Sketch 47.1 (45422) - http://www.bohemiancoding.com/sketch -->
    <title>half-wreath</title>
    <desc>Created with Sketch.</desc>
    <defs>
        <linearGradient x1="0%" y1="0%" x2="100%" y2="99.3423151%" id="linearGradient-1">
            <stop stop-color="#F4A261" offset="0%"></stop>
            <stop stop-color="#88873c" offset="100%"></stop>
        </linearGradient>
    </defs>
    <g id="Page-1" stroke="none" stroke-width="1" fill="none" fill-rule="evenodd">
        <g id="half-wreath" transform="translate(143.481990, 40.358887) rotate(8.000000) translate(-143.481990, -40.358887) translate(2.981990, 5.858887)" fill-rule="nonzero" fill="url(#linearGradient-1)">
            <path d="M122.973697,59.3806285 C123.540773,58.4806285 124.320502,58.7806285 124.533156,59.8806285 C124.674925,60.4806285 124.674925,61.3806285 124.533156,61.9806285 C124.107849,63.5806285 123.611658,65.0806285 123.044582,66.5806285 C122.619275,67.5806285 122.335737,68.5806285 122.619275,69.8806285 C124.391387,79.0806285 126.730575,87.9806285 129.778608,96.4806285 C129.849492,96.6806285 129.991261,96.8806285 130.274799,97.3806285 C130.274799,96.3806285 130.274799,95.6806285 130.274799,94.8806285 C130.274799,92.1806285 130.274799,89.5806285 131.125413,87.0806285 C131.763373,85.2806285 132.613987,84.3806285 133.535485,84.6806285 C134.527868,84.9806285 135.520251,86.2806285 135.591136,88.0806285 C135.66202,89.7806285 135.591136,91.4806285 135.378482,93.0806285 C134.811406,96.7806285 134.173446,100.480629 133.535485,104.280629 C133.464601,104.880629 133.251948,105.580629 133.464601,106.080629 C134.882291,109.680628 136.370865,113.280629 138.142977,116.580629 C138.284746,114.580629 138.284746,112.580629 138.639168,110.680629 C139.277129,107.780629 140.127743,104.880629 141.120125,102.080629 C141.474548,101.180629 142.254277,100.480629 142.963122,99.9806285 C143.317544,99.6806285 144.239043,99.9806285 144.451696,100.480629 C144.66435,100.980629 144.593465,102.080629 144.380812,102.680629 C143.88462,103.780629 143.175775,104.780629 142.466931,105.580629 C140.198627,108.080629 139.77332,111.580629 139.985974,115.480629 C140.198627,114.780629 140.482165,114.180629 140.694819,113.480629 C140.836587,112.980629 140.978356,112.480629 141.19101,112.080629 C141.758086,110.980629 142.466931,110.580629 142.892238,111.180629 C143.459313,112.080629 143.034007,112.780629 142.6087,113.480629 C140.411281,117.280629 140.269512,122.180629 142.254277,126.180629 C143.175775,128.080629 144.097274,129.980629 145.089657,131.880629 C145.30231,132.380629 145.656732,132.780629 146.082039,133.580629 C145.94027,131.880629 145.727617,130.680629 145.798501,129.480629 C145.869386,128.080629 146.011155,126.680629 146.294693,125.280629 C146.649115,123.680629 147.570614,122.880629 148.350343,123.080629 C149.200957,123.280629 149.768033,124.380629 149.768033,126.180629 C149.768033,127.280629 149.697148,128.280629 149.555379,129.380629 C149.271841,131.880629 148.988303,134.480629 148.633881,136.980629 C148.492112,138.280629 148.633881,139.380629 149.271841,140.380629 C150.760415,142.780629 152.107221,145.280629 153.595795,147.780629 C153.666679,145.780629 153.737564,143.980629 153.879333,142.280629 C153.950217,141.580629 154.162871,140.880629 154.446409,140.380629 C154.729947,139.880629 155.367907,139.380629 155.722329,139.580629 C156.147636,139.780629 156.714712,140.380629 156.856481,141.080628 C157.069135,141.880629 156.99825,142.780629 156.99825,143.680629 C156.99825,146.280629 156.927366,148.880629 156.856481,151.380629 C156.856481,152.480628 157.069135,153.380629 157.636211,154.180629 C160.967781,158.880629 164.724659,162.680629 168.977728,165.980629 C168.552421,163.880629 168.05623,161.980629 167.914461,159.980629 C167.772692,158.080628 167.914461,156.080628 168.05623,154.180629 C168.127114,153.480629 168.339768,152.780629 168.69419,152.280629 C168.977728,151.880629 169.47392,151.580628 169.828342,151.780629 C170.182764,151.880629 170.537187,152.580628 170.537187,153.080628 C170.608071,154.080628 170.395418,154.980629 170.324533,155.980629 C170.182764,157.880629 170.11188,159.780629 169.970111,162.180629 C171.104263,161.380629 171.175147,160.080628 171.600454,159.280629 C171.954877,158.580628 172.238415,157.780629 172.663721,157.080628 C173.159913,156.380629 173.797873,156.080628 174.364949,156.780629 C175.002909,157.580628 174.648487,158.380629 174.152296,159.080628 C172.876375,160.780629 172.309299,162.980629 171.813108,165.280629 C171.458685,167.080628 171.813108,168.380629 172.592837,169.680629 C173.159913,170.580628 173.797873,171.280629 174.294065,172.180629 C174.506718,172.580628 174.506718,173.180629 174.719372,174.080628 C173.443451,173.580628 172.521952,172.980629 171.813108,171.980629 C171.316916,171.280629 170.820725,170.580628 170.324533,169.880629 C167.985345,166.880629 165.504388,164.580628 162.031049,165.380629 C160.684243,165.680629 159.266554,165.180629 157.919748,164.980629 C157.352673,164.880629 156.856481,164.580628 156.36029,164.180629 C155.722329,163.680629 155.226138,162.980629 155.367907,161.880629 C155.509676,160.780628 156.218521,160.380629 156.927366,160.280629 C157.636211,160.280629 158.274171,160.380629 158.983016,160.480628 C159.620976,160.580628 160.188052,160.880629 161.10955,161.280629 C158.912131,158.380629 157.210904,155.280629 155.013485,153.380629 C153.241372,151.780629 150.8313,151.880629 148.633881,152.980628 C147.783267,153.480628 146.861769,153.880629 145.94027,154.280629 C145.373195,154.480628 144.806119,154.480628 144.239043,154.280629 C143.317544,154.080628 142.750469,153.180629 142.892238,152.180629 C143.034007,150.980629 143.671967,150.680629 144.380812,150.680629 C145.656732,150.680629 146.932653,150.780629 148.137689,150.780629 C148.562996,150.780629 148.988303,150.780629 149.484495,150.380629 C149.130072,150.080628 148.846534,149.780629 148.492112,149.580628 C145.656732,147.780628 142.750469,145.980628 139.915089,144.080628 C138.993591,143.480628 138.072093,142.580628 137.221479,141.680628 C136.654403,140.980628 136.087327,139.880628 136.654403,138.880628 C137.221479,137.780628 138.001208,138.380628 138.710053,138.980628 C139.418898,139.580628 140.056858,140.280628 140.765703,140.880628 C144.026389,144.080628 147.428845,146.980628 151.043953,149.180628 C151.611029,149.480628 152.178105,149.780628 152.88695,149.780628 C151.965452,148.180628 151.043953,146.480628 150.051571,144.880628 C144.877003,135.980628 140.411281,126.380628 136.016442,116.780628 C135.307598,115.180628 134.386099,114.580628 133.110179,114.280628 C131.55072,113.980628 130.062146,113.280628 128.573572,112.680628 C128.148265,112.480628 127.793842,112.080628 127.43942,111.680628 C126.801459,110.880629 126.65969,109.880629 127.014113,108.780628 C127.297651,107.780628 127.935611,107.180628 128.71534,107.380628 C129.991261,107.780628 131.196297,108.380628 132.543103,108.980628 C132.401334,108.480628 132.259565,107.880628 132.046911,107.380628 C129.282416,100.580629 126.65969,93.6806285 124.60404,86.3806285 C124.462271,85.8806285 124.178733,85.2806285 123.824311,84.9806285 C122.052199,83.1806285 120.209202,81.4806285 118.507975,79.4806285 C117.586476,78.3806285 116.664978,77.8806285 115.459942,77.9806285 C113.900483,78.0806285 112.27014,78.1806285 110.710681,77.9806285 C109.576529,77.7806285 108.371493,77.3806285 107.308226,76.6806285 C106.386728,76.0806285 105.961421,74.7806285 106.244959,73.8806285 C106.670266,72.5806285 107.449995,72.3806285 108.300609,72.6806285 C109.222107,73.0806285 110.143605,73.6806285 111.065104,74.2806285 C112.341024,75.0806285 113.546061,75.9806285 115.176404,75.7806285 C113.971368,73.4806285 112.837216,71.3806285 111.844833,69.1806285 C111.348642,68.0806285 111.206873,66.7806285 111.065104,65.4806285 C110.994219,65.0806285 111.419526,64.2806285 111.773948,64.1806285 C112.057486,64.0806285 112.553678,64.4806285 112.837216,64.8806285 C113.120754,65.2806285 113.262523,65.9806285 113.262523,66.5806285 C113.475176,69.7806285 114.680212,72.0806285 116.239671,74.0806285 C118.507975,77.0806285 120.847163,79.7806285 123.186351,82.6806285 C123.32812,82.5806285 123.399004,82.4806285 123.540773,82.3806285 C123.186351,80.7806285 122.690159,79.1806285 122.477506,77.4806285 C121.91043,73.3806285 120.421856,70.2806285 118.224437,67.5806285 C116.664978,65.5806285 115.389057,63.0806285 114.184021,60.5806285 C113.546061,59.2806285 113.191638,57.5806285 112.837216,55.9806285 C112.624562,54.8806285 112.695447,53.7806285 113.475176,53.1806285 C114.32579,52.4806285 114.96375,53.2806285 115.389057,54.1806285 C116.310556,56.0806285 117.161169,58.0806285 117.940899,60.0806285 C118.507975,61.4806285 119.004166,62.8806285 119.783895,64.0806285 C119.287704,60.2806285 118.720628,56.4806285 118.366206,52.6806285 C117.870014,47.1806285 117.444707,41.7806285 117.161169,36.2806285 C117.090285,34.0806285 116.594093,32.3806285 115.389057,30.9806285 C113.049869,28.2806285 111.135988,24.9806285 109.930952,20.8806285 C109.647414,19.8806285 109.363876,18.6806285 109.363876,17.5806285 C109.363876,15.7806285 110.356259,14.9806285 111.419526,15.8806285 C112.341024,16.6806285 113.120754,17.8806285 113.829599,19.0806285 C114.396674,20.0806285 114.892866,21.2806285 115.318173,22.4806285 C115.74348,23.5806285 116.168787,24.7806285 116.664978,25.8806285 C116.948516,19.5806285 117.161169,13.3806285 115.530826,7.2806285 C115.318173,6.5806285 115.176404,5.9806285 115.034635,5.2806285 C114.396674,2.0806285 113.546061,-0.9193715 111.561295,-3.0193715 C110.923335,-3.7193715 110.568912,-4.8193715 110.143605,-5.8193715 C109.151223,-7.8193715 108.15884,-9.9193715 107.237341,-12.0193715 C106.882919,-12.8193715 106.528497,-13.7193715 106.386728,-14.6193715 C106.315843,-15.1193715 106.670266,-16.0193715 106.953803,-16.3193715 C107.166457,-16.5193715 107.875302,-16.2193715 108.087955,-15.9193715 C108.584147,-15.0193715 108.938569,-14.0193715 109.292991,-12.9193715 C110.072721,-10.7193715 110.710681,-8.3193715 111.490411,-6.1193715 C111.844833,-5.0193715 112.482793,-4.2193715 113.120754,-3.1193715 C113.120754,-6.5193715 113.120754,-9.6193715 113.120754,-12.6193715 C113.120754,-13.1193715 112.766331,-13.7193715 112.553678,-14.2193715 C111.348642,-16.8193715 110.143605,-19.4193715 109.009454,-22.0193715 C108.584147,-23.0193715 108.371493,-24.1193715 108.300609,-25.2193715 C108.229724,-26.8193715 108.867685,-28.0193715 109.860067,-28.5193715 C110.85245,-29.0193715 111.844833,-28.7193715 112.482793,-27.3193715 C112.978985,-26.3193715 113.404292,-25.1193715 113.546061,-24.0193715 C114.254905,-20.0193715 114.609328,-16.1193715 114.538443,-11.9193715 C114.396674,-5.2193715 114.96375,1.3806285 117.302938,7.6806285 C117.444707,7.0806285 117.586476,6.6806285 117.657361,6.2806285 C118.578859,-7.0193715 120.067433,-20.1193715 122.54839,-33.0193715 C122.690159,-33.6193715 122.619275,-34.4193715 122.406621,-35.0193715 C120.350971,-43.2193715 119.07505,-51.6193715 119.287704,-60.3193715 C119.287704,-61.0193715 119.216819,-61.8193715 119.429473,-62.4193715 C119.642126,-63.0193715 120.138318,-63.7193715 120.634509,-63.8193715 C120.847163,-63.9193715 121.485123,-63.1193715 121.626892,-62.5193715 C121.91043,-60.9193715 122.123083,-59.2193715 122.264852,-57.5193715 C122.761044,-52.1193715 123.186351,-46.7193715 123.611658,-41.4193715 C123.682542,-41.0193715 123.753427,-40.6193715 123.96608,-39.7193715 C126.517921,-49.4193715 129.069763,-58.8193715 131.55072,-68.4193715 C130.062146,-70.7193715 129.140647,-73.6193715 128.857109,-76.9193715 C128.71534,-78.6193715 128.927994,-80.4193715 129.140647,-82.1193715 C129.282416,-83.2193715 129.778608,-84.1193715 130.700106,-84.1193715 C131.338066,-84.2193715 131.976027,-83.1193715 132.046911,-81.5193715 C132.18868,-78.7193715 132.330449,-75.8193715 132.472218,-73.0193715 C132.472218,-72.7193715 132.543103,-72.3193715 132.613987,-71.4193715 C133.60637,-73.7193715 134.386099,-75.5193715 135.236713,-77.3193715 C136.370865,-79.7193715 137.221479,-82.0193715 137.575901,-85.0193715 C138.284746,-90.5193715 139.631551,-95.9193715 142.396046,-100.119372 C143.601082,-102.019372 145.160541,-103.519372 146.578231,-105.019372 C146.932653,-105.419372 147.499729,-105.519372 147.995921,-105.519372 C148.917419,-105.519372 149.342726,-104.919372 149.200957,-103.719372 C148.988303,-102.119372 148.77565,-100.519372 148.279458,-99.1193715 C147.003538,-95.1193715 145.160541,-91.6193715 142.963122,-88.5193715 C137.859439,-81.2193715 134.315215,-72.4193715 131.621604,-63.0193715 C131.125413,-61.3193715 130.700106,-59.5193715 130.274799,-57.8193715 C132.117796,-58.9193715 133.889908,-60.6193715 135.66202,-62.2193715 C136.654403,-63.1193715 137.71767,-63.9193715 138.780937,-64.6193715 C140.623934,-65.8193715 142.254277,-67.3193715 143.813736,-69.3193715 C145.656732,-71.6193715 147.783267,-73.4193715 150.405993,-73.6193715 L151.540145,-73.6193715 C152.88695,-73.4193715 153.383141,-71.8193715 152.532528,-70.4193715 C152.036336,-69.5193715 151.256607,-68.6193715 150.476877,-68.1193715 C148.279458,-66.5193715 145.94027,-65.4193715 143.459313,-65.1193715 C141.261894,-64.8193715 139.631551,-63.1193715 137.575901,-61.6193715 C140.056858,-60.6193715 142.183393,-59.8193715 144.239043,-58.9193715 C144.806119,-58.7193715 145.373195,-58.5193715 145.798501,-58.1193715 C146.082039,-57.8193715 146.436462,-56.9193715 146.294693,-56.6193715 C146.011155,-56.1193715 145.514964,-55.6193715 145.160541,-55.7193715 C144.66435,-55.7193715 144.097274,-56.2193715 143.601082,-56.6193715 C141.403663,-58.8193715 138.851822,-59.2193715 136.370865,-60.1193715 C136.016442,-60.2193715 135.520251,-59.9193715 135.165829,-59.6193715 C134.173446,-58.7193715 133.181063,-57.8193715 132.18868,-56.8193715 C130.062146,-54.5193715 128.431803,-51.8193715 127.510304,-48.1193715 C125.738192,-40.5193715 123.611658,-33.1193715 122.54839,-25.2193715 C122.477506,-24.8193715 122.477506,-24.4193715 122.335737,-23.4193715 C123.257235,-24.9193715 123.96608,-26.1193715 124.674925,-27.1193715 C125.879961,-28.8193715 127.155882,-30.3193715 128.502687,-31.9193715 C128.857109,-32.4193715 129.353301,-32.8193715 129.849492,-32.9193715 C130.416568,-33.0193715 131.125413,-32.9193715 131.55072,-32.5193715 C132.18868,-31.9193715 132.259565,-30.7193715 131.763373,-29.9193715 C131.054528,-28.6193715 130.274799,-27.2193715 129.424185,-26.2193715 C127.864727,-24.3193715 126.163499,-22.6193715 124.533156,-20.8193715 C123.611658,-19.7193715 122.761044,-18.6193715 121.91043,-17.4193715 C121.556007,-16.9193715 121.27247,-16.3193715 121.201585,-15.6193715 C120.49274,-10.0193715 119.925664,-4.5193715 119.287704,1.0806285 C119.429473,1.1806285 119.571242,1.1806285 119.642126,1.2806285 C119.996549,0.5806285 120.280087,-0.2193715 120.634509,-0.9193715 C121.556007,-2.8193715 122.477506,-4.7193715 123.399004,-6.6193715 C123.824311,-7.4193715 124.391387,-8.0193715 124.958463,-8.4193715 C125.809077,-9.0193715 126.588806,-8.3193715 126.517921,-7.0193715 C126.447037,-6.0193715 126.234383,-4.9193715 125.879961,-4.0193715 C124.391387,0.3806285 122.477506,4.2806285 120.067433,7.6806285 C119.07505,9.0806285 118.649744,10.5806285 118.578859,12.5806285 C118.082668,22.5806285 118.224437,32.6806285 118.933281,42.6806285 C119.07505,42.5806285 119.216819,42.5806285 119.216819,42.5806285 C120.421856,37.3806285 122.052199,32.3806285 122.690159,26.8806285 C122.902813,24.6806285 123.469889,22.5806285 124.533156,20.7806285 C125.312885,19.4806285 126.02173,19.1806285 126.588806,19.7806285 C127.297651,20.5806285 127.226766,21.6806285 126.872344,22.6806285 C126.092615,24.5806285 125.312885,26.4806285 124.533156,28.4806285 C123.96608,29.9806285 123.469889,31.4806285 122.690159,33.4806285 C124.320502,32.6806285 125.525539,31.9806285 126.730575,31.4806285 C127.510304,31.0806285 128.290034,30.7806285 129.069763,30.6806285 C129.424185,30.5806285 129.778608,31.0806285 130.13303,31.3806285 C129.920377,31.9806285 129.707723,32.6806285 129.424185,32.9806285 C129.140647,33.2806285 128.573572,33.2806285 128.148265,33.3806285 C127.155882,33.6806285 126.163499,33.8806285 125.171116,34.2806285 C123.115466,35.0806285 121.768661,36.7806285 121.201585,39.7806285 C120.918047,41.3806285 120.563625,43.0806285 120.067433,44.5806285 C119.358588,46.8806285 119.216819,49.1806285 119.571242,51.5806285 C120.350971,55.2806285 120.776278,58.7806285 121.27247,62.7806285 C122.052199,61.1806285 122.406621,60.1806285 122.973697,59.3806285 Z" id="Shape" transform="translate(140.438743, 34.280628) rotate(90.000000) translate(-140.438743, -34.280628) "></path>
        </g>
    </g>
</svg>