<?xml version="1.0" encoding="UTF-8"?>
<svg width="422px" height="491px" viewBox="0 0 422 491" version="1.1" xmlns="http://www.w3.org/2000/svg" xmlns:xlink="http://www.w3.org/1999/xlink">
    <!-- Generator: Sketch 47.1 (45422) - http://www.bohemiancoding.com/sketch -->
    <title>Shape</title>
    <desc>Created with Sketch.</desc>
    <defs></defs>
    <g id="Page-1" stroke="none" stroke-width="1" fill="none" fill-rule="evenodd" fill-opacity="0.274031929">
        <g id="love-hand-drawn-heart-symbol-outline" transform="translate(-195.000000, -87.000000)" fill-rule="nonzero" fill="#E76F51">
            <path d="M465.51195,138.190111 C462.001135,137.337285 458.415757,136.67167 454.857032,136.216762 C418.104056,131.526495 380.909438,150.936519 349.790402,190.944896 C329.938746,132.887831 289.060295,88.7745753 244.81174,78.0259716 C235.087736,75.6638727 225.208604,74.8946756 215.452572,75.7444636 C185.304024,78.3693744 157.791476,99.3547898 139.974076,133.332866 C120.230453,170.974649 115.083043,219.434707 126.542815,259.800527 C142.280428,315.241846 177.805016,355.377705 212.155373,394.18532 C229.798338,414.127061 248.047681,434.732688 262.999079,456.903893 C267.453719,463.499177 273.010712,472.036509 277.528953,480.964791 C268.971651,488.064555 250.199178,514.012657 250.007917,514.332068 C243.720989,524.978022 233.733433,548.290673 236.175492,568.139634 C237.221465,576.607798 240.419701,583.335837 245.695033,588.138392 C248.401006,590.597764 251.394872,592.245702 254.591574,593.022226 C268.335877,596.360913 283.598256,583.174939 293.987469,571.534493 C312.990465,550.217418 319.332955,524.538369 312.83766,495.170735 C334.342804,478.938202 357.229691,464.553946 379.374254,450.632647 C417.469734,426.689498 456.860016,401.922851 490.577269,366.960101 C507.050297,349.873251 559.324298,288.410882 540.588468,214.768989 C530.684267,175.830599 502.616768,147.2034 465.51195,138.190111 Z M286.36851,550.374889 C278.899152,562.055871 271.940792,570.108677 265.28287,574.714393 C269.439922,555.676786 278.264105,538.250262 283.661461,528.794715 C285.175748,526.13921 294.226208,514.382132 300.629237,506.602989 C299.82159,522.282597 295.12011,536.68949 286.36851,550.374889 Z M310.674763,153.875656 C318.099767,165.126817 324.316808,177.308953 329.156123,190.062548 C329.73171,191.58308 330.543334,194.383089 331.491755,197.626351 C336.947708,216.385592 343.067198,234.893727 352.453176,237.173714 C357.10992,238.304904 361.689405,235.172114 366.06284,227.851662 C393.984723,181.167041 430.530071,158.166826 468.964854,163.080142 C471.199691,163.361371 473.443172,163.78515 475.64316,164.319558 C504.541701,171.339425 526.665815,198.651058 530.703847,232.277497 C536.019388,276.60529 509.753002,321.223988 450.40586,368.678175 C424.922881,389.060215 397.49485,406.289899 370.974345,422.958498 C350.158513,436.031402 328.652224,449.545955 308.154531,464.524254 C295.802554,438.892091 277.993508,415.607547 263.718649,398.03156 C255.250787,387.599704 245.969232,377.154813 236.144278,366.09541 C187.838927,311.730273 133.09621,250.113186 156.352873,165.793063 C169.649023,117.580841 204.153896,92.723507 244.258491,102.465484 C247.205201,103.181282 250.193744,104.088467 253.144353,105.181255 C274.789742,113.159879 295.2188,130.455929 310.674763,153.875656 Z" id="Shape" transform="translate(332.556972, 334.478985) scale(-1, 1) rotate(-44.000000) translate(-332.556972, -334.478985) "></path>
        </g>
    </g>
</svg>